<mxfile host="Electron" modified="2024-04-08T19:43:34.295Z" agent="Mozilla/5.0 (Macintosh; Intel Mac OS X 10_15_7) AppleWebKit/537.36 (KHTML, like Gecko) draw.io/24.1.0 Chrome/120.0.6099.109 Electron/28.1.0 Safari/537.36" etag="bJGPAaL1VKKkqxL9bnrZ" version="24.1.0" type="device">
  <diagram name="Page-1" id="Dm00h_glG5wHUAZUfB6E">
    <mxGraphModel dx="411" dy="333" grid="1" gridSize="10" guides="1" tooltips="1" connect="1" arrows="1" fold="1" page="1" pageScale="1" pageWidth="827" pageHeight="1169" math="0" shadow="0">
      <root>
        <mxCell id="0" />
        <mxCell id="1" parent="0" />
        <mxCell id="dZqjJTFFwyD9LLtinUpl-1" value="" style="rounded=0;whiteSpace=wrap;html=1;fillColor=none;strokeColor=none;" vertex="1" parent="1">
          <mxGeometry x="120" y="120" width="40" height="40" as="geometry" />
        </mxCell>
        <mxCell id="YZ_XdQK_0pVlKW8N0biK-8" value="" style="shape=image;verticalLabelPosition=bottom;labelBackgroundColor=default;verticalAlign=top;aspect=fixed;imageAspect=0;image=data:image/svg+xml,PHN2ZyB4bWxuczp4bGluaz0iaHR0cDovL3d3dy53My5vcmcvMTk5OS94bGluayIgeG1sbnM9Imh0dHA6Ly93d3cudzMub3JnLzIwMDAvc3ZnIiBoZWlnaHQ9IjEyMy4zMTIiIHdpZHRoPSIxMjIuMTI1IiB2ZXJzaW9uPSIxLjEiIHZpZXdCb3g9IjAgMCAxMjIuMTI1IDEyMy4zMTIiPiYjeGE7IDxnPiYjeGE7ICA8cmVjdCB5PSIwIiB4PSIwIiB3aWR0aD0iMTIyLjEyNSIgb3BhY2l0eT0iMCIgaGVpZ2h0PSIxMjMuMzEyIi8+JiN4YTsgIDxwYXRoIGZpbGw9IiMwMDAwMDAiIGQ9Ik0wIDQ5Ljg3NUMwIDc3LjM3NSAyMi4zNzUgOTkuNzUgNDkuODc1IDk5Ljc1QzYwLjc1IDk5Ljc1IDcwLjY4NzUgOTYuMjUgNzguODc1IDkwLjM3NUwxMDkuNjI1IDEyMS4xODhDMTExLjA2MiAxMjIuNjI1IDExMi45MzggMTIzLjMxMiAxMTQuOTM4IDEyMy4zMTJDMTE5LjE4OCAxMjMuMzEyIDEyMi4xMjUgMTIwLjEyNSAxMjIuMTI1IDExNS45MzhDMTIyLjEyNSAxMTMuOTM4IDEyMS4zNzUgMTEyLjEyNSAxMjAuMDYyIDExMC44MTJMODkuNSA4MC4wNjI1Qzk1LjkzNzUgNzEuNjg3NSA5OS43NSA2MS4yNSA5OS43NSA0OS44NzVDOTkuNzUgMjIuMzc1IDc3LjM3NSAwIDQ5Ljg3NSAwQzIyLjM3NSAwIDAgMjIuMzc1IDAgNDkuODc1Wk0xMC42ODc1IDQ5Ljg3NUMxMC42ODc1IDI4LjI1IDI4LjI1IDEwLjY4NzUgNDkuODc1IDEwLjY4NzVDNzEuNSAxMC42ODc1IDg5LjA2MjUgMjguMjUgODkuMDYyNSA0OS44NzVDODkuMDYyNSA3MS41IDcxLjUgODkuMDYyNSA0OS44NzUgODkuMDYyNUMyOC4yNSA4OS4wNjI1IDEwLjY4NzUgNzEuNSAxMC42ODc1IDQ5Ljg3NVpNMzAuMTg3NSA0NS44NzVMNjkuODEyNSA0NS44NzVDNzIuMjUgNDUuODc1IDc0LjEyNSA0My45Mzc1IDc0LjEyNSA0MS41Qzc0LjEyNSAzOS4wNjI1IDcyLjI1IDM3LjEyNSA2OS44MTI1IDM3LjEyNUwzMC4xODc1IDM3LjEyNUMyNy42ODc1IDM3LjEyNSAyNS44MTI1IDM5LjA2MjUgMjUuODEyNSA0MS41QzI1LjgxMjUgNDMuOTM3NSAyNy42ODc1IDQ1Ljg3NSAzMC4xODc1IDQ1Ljg3NVpNMzAuMTg3NSA2Mi41NjI1TDU4LjkzNzUgNjIuNTYyNUM2MS4zNzUgNjIuNTYyNSA2My4zNzUgNjAuNjg3NSA2My4zNzUgNTguMjVDNjMuMzc1IDU1LjgxMjUgNjEuMzc1IDUzLjgxMjUgNTguOTM3NSA1My44MTI1TDMwLjE4NzUgNTMuODEyNUMyNy42ODc1IDUzLjgxMjUgMjUuODEyNSA1NS44MTI1IDI1LjgxMjUgNTguMjVDMjUuODEyNSA2MC42ODc1IDI3LjY4NzUgNjIuNTYyNSAzMC4xODc1IDYyLjU2MjVaIi8+JiN4YTsgPC9nPiYjeGE7PC9zdmc+;" parent="1" vertex="1">
          <mxGeometry x="120.32" y="120" width="39.68" height="40" as="geometry" />
        </mxCell>
      </root>
    </mxGraphModel>
  </diagram>
</mxfile>
